<svg xmlns="http://www.w3.org/2000/svg" width="176" height="176" viewBox="0 0 176 176" version="1.1"><path d="M 111.571 16.572 C 110.236 17.548, 109.291 17.657, 108.422 16.935 C 107.526 16.191, 106.773 16.486, 105.716 17.994 C 104.911 19.144, 103.858 19.965, 103.376 19.820 C 101.921 19.380, 97 23.127, 97 24.674 C 97 25.468, 96.571 25.853, 96.047 25.529 C 95.524 25.206, 94.511 26.019, 93.797 27.337 C 93.084 28.656, 91.150 31.405, 89.500 33.448 C 87.850 35.490, 85.585 38.294, 84.468 39.678 C 82.414 42.222, 75.552 43.702, 74.407 41.849 C 74.118 41.382, 73.008 41, 71.940 41 C 70.299 41, 68.414 39.356, 61.260 31.685 C 58.593 28.825, 49.499 22.191, 48.820 22.611 C 48.369 22.890, 48 22.641, 48 22.059 C 48 21.477, 47.663 21.096, 47.250 21.212 C 46.838 21.329, 45.600 20.930, 44.500 20.326 C 42.751 19.365, 41.029 19.088, 35.750 18.918 C 29.592 18.721, 19.412 24.285, 14.887 30.323 C 10.756 35.834, 9.034 40.425, 7.503 50 C 7.283 51.375, 6.812 54.075, 6.457 56 C 5.478 61.298, 4.903 66.929, 4.749 72.750 C 4.672 75.638, 4.360 78, 4.055 78 C 3.248 78, 3.536 91.730, 4.453 97 C 4.884 99.475, 5.823 102.625, 6.539 104 C 7.821 106.458, 12 110.566, 12 109.368 C 12 109.031, 12.563 109.189, 13.250 109.719 C 13.938 110.249, 15.400 110.371, 16.500 109.990 C 17.600 109.609, 19.481 108.961, 20.681 108.550 C 21.880 108.139, 23.113 107.149, 23.419 106.350 C 23.777 105.419, 23.532 105.121, 22.739 105.522 C 22.057 105.867, 22.374 105.440, 23.441 104.574 C 24.509 103.708, 24.959 102.986, 24.441 102.968 C 23.924 102.951, 24.215 102.388, 25.089 101.718 C 25.963 101.048, 26.945 99.375, 27.270 98 C 27.595 96.625, 28.381 93.700, 29.016 91.500 C 29.652 89.300, 30.230 86.037, 30.300 84.250 C 30.371 82.463, 30.782 81, 31.214 81 C 31.646 81, 31.921 80.662, 31.823 80.250 C 31.726 79.837, 32.224 77.475, 32.929 75 C 33.635 72.525, 34.186 70.275, 34.155 70 C 34.123 69.725, 34.761 68.487, 35.572 67.250 C 36.383 66.013, 36.742 65, 36.370 65 C 35.998 65, 36.655 64.167, 37.829 63.148 C 39.003 62.130, 39.634 60.962, 39.232 60.553 C 38.829 60.144, 39.175 59.930, 40 60.078 C 40.825 60.225, 42.735 59.747, 44.245 59.015 C 46.698 57.825, 47.178 57.897, 48.745 59.685 C 49.710 60.786, 51.010 61.512, 51.634 61.299 C 52.258 61.085, 53.558 61.701, 54.524 62.667 C 56.161 64.304, 57.747 64.960, 60.706 65.225 C 61.369 65.285, 61.680 65.708, 61.397 66.167 C 61.114 66.625, 61.584 67, 62.441 67 C 63.298 67, 64 67.388, 64 67.861 C 64 68.335, 65.125 68.508, 66.500 68.245 C 67.875 67.982, 69 68.157, 69 68.633 C 69 69.110, 71.138 69.607, 73.750 69.737 C 76.363 69.867, 79.400 70.170, 80.500 70.410 C 81.600 70.650, 82.838 70.881, 83.250 70.923 C 83.662 70.966, 84 71.575, 84 72.278 C 84 72.981, 84.900 74.326, 86 75.268 C 87.969 76.954, 88.793 81, 87.167 81 C 86.708 81, 86.294 81.563, 86.247 82.250 C 86.065 84.883, 85.034 88.254, 84.046 89.444 C 83.480 90.126, 83.303 90.969, 83.651 91.318 C 84 91.666, 83.658 92.724, 82.893 93.668 C 81.685 95.156, 81.700 95.266, 83 94.500 C 84.209 93.787, 84.276 93.896, 83.345 95.058 C 82.710 95.851, 82.059 98.075, 81.897 100 C 81.736 101.925, 81.131 104.149, 80.552 104.942 C 79.767 106.018, 79.815 106.195, 80.743 105.637 C 81.690 105.068, 81.861 106.032, 81.462 109.696 C 81.174 112.338, 80.771 116.075, 80.566 118 C 79.793 125.282, 78.750 130.539, 77.860 131.640 C 77.353 132.267, 76.683 136.317, 76.372 140.640 C 76.061 144.963, 75.617 148.806, 75.387 149.181 C 75.156 149.555, 75.405 150.132, 75.940 150.463 C 76.475 150.794, 76.657 151.730, 76.345 152.543 C 75.951 153.571, 76.247 153.842, 77.316 153.432 C 78.482 152.985, 78.722 153.345, 78.310 154.921 C 77.929 156.381, 78.239 157, 79.352 157 C 80.434 157, 80.738 157.555, 80.309 158.750 C 79.964 159.713, 80.037 160.178, 80.472 159.785 C 80.907 159.392, 82.204 159.730, 83.354 160.535 C 84.504 161.341, 86.357 161.978, 87.473 161.952 C 90.438 161.882, 96.541 158.569, 96.250 157.187 C 96.113 156.534, 96.482 156, 97.071 156 C 97.661 156, 98.755 155.388, 99.503 154.640 C 101.379 152.763, 104.820 140.416, 105.393 133.500 C 105.485 132.400, 105.904 130.947, 106.326 130.271 C 106.748 129.595, 106.625 128.168, 106.054 127.101 C 105.354 125.792, 105.347 125.051, 106.034 124.822 C 106.594 124.635, 107.234 121.632, 107.456 118.148 C 107.702 114.284, 108.473 111.135, 109.432 110.075 C 110.297 109.120, 110.703 108.037, 110.336 107.669 C 109.968 107.301, 110.192 107, 110.833 107 C 111.475 107, 112 106.100, 112 105 C 112 103.900, 112.338 102.999, 112.750 102.998 C 113.162 102.997, 115.975 100.763, 119 98.032 C 122.025 95.302, 125.063 92.996, 125.750 92.909 C 126.438 92.822, 127.466 92.694, 128.036 92.625 C 128.607 92.556, 129.394 91.998, 129.786 91.385 C 130.179 90.771, 131.519 89.952, 132.765 89.563 C 134.143 89.133, 134.753 88.395, 134.323 87.678 C 133.848 86.886, 134.127 86.914, 135.175 87.762 C 136.441 88.787, 136.956 88.758, 137.913 87.605 C 138.560 86.825, 140.207 86.309, 141.571 86.458 C 142.935 86.608, 144.377 86.199, 144.776 85.550 C 145.174 84.900, 148.258 83.352, 151.628 82.108 C 158.392 79.613, 165.030 73.975, 167.339 68.765 C 170.588 61.434, 170.544 61.729, 169.601 53.500 C 169.349 51.300, 168.932 48.825, 168.674 48 C 167.049 42.796, 166.678 42, 165.883 42 C 165.398 42, 165 41.298, 165 40.441 C 165 39.517, 164.530 39.173, 163.845 39.595 C 163.127 40.039, 162.963 39.870, 163.409 39.147 C 163.804 38.508, 163.424 37.281, 162.564 36.421 C 161.704 35.561, 160.986 35.227, 160.968 35.679 C 160.951 36.130, 160.388 35.825, 159.718 35 C 157.690 32.502, 151.229 28, 149.674 28 C 148.871 28, 147.971 27.367, 147.675 26.594 C 147.378 25.821, 145.755 24.885, 144.068 24.515 C 142.380 24.144, 141 23.400, 141 22.862 C 141 22.323, 140.563 22.152, 140.028 22.483 C 139.494 22.813, 137.995 22.388, 136.698 21.538 C 135.401 20.688, 134.039 20.295, 133.670 20.663 C 133.302 21.032, 133 20.808, 133 20.167 C 133 19.525, 132.100 19, 131 19 C 129.900 19, 129 18.543, 129 17.984 C 129 17.425, 127.763 16.991, 126.250 17.020 C 122.522 17.089, 115.240 16.266, 114.268 15.666 C 113.833 15.397, 112.620 15.805, 111.571 16.572 M 129.079 46.809 C 129.036 47.529, 128.550 47.840, 128 47.500 C 127.450 47.160, 127 47.407, 127 48.048 C 127 48.689, 126.325 48.955, 125.500 48.638 C 124.675 48.322, 124 48.525, 124 49.090 C 124 49.656, 123.570 49.852, 123.044 49.527 C 120.306 47.835, 116.682 60.707, 119.081 63.598 C 119.729 64.379, 121.993 65.295, 124.112 65.634 C 126.230 65.973, 127.746 66.602, 127.480 67.032 C 127.215 67.462, 127.898 67.578, 128.999 67.290 C 130.099 67.002, 131 66.321, 131 65.776 C 131 65.232, 131.774 65.083, 132.720 65.446 C 133.665 65.809, 134.122 65.789, 133.735 65.402 C 133.348 65.015, 133.615 64.203, 134.328 63.599 C 135.041 62.994, 136.149 61.263, 136.791 59.750 C 137.804 57.362, 137.730 56.998, 136.229 56.985 C 134.747 56.972, 134.714 56.831, 136 56 C 136.904 55.416, 137.026 55.025, 136.307 55.015 C 135.646 55.007, 135.291 54.087, 135.509 52.952 C 135.932 50.756, 132.519 46.561, 131.049 47.470 C 130.566 47.768, 129.943 47.447, 129.664 46.756 C 129.272 45.783, 129.140 45.794, 129.079 46.809" stroke="none" fill="#4e2893" fill-rule="evenodd"/><path d="M 0 88.005 L 0 176.011 88.250 175.755 L 176.500 175.500 176.755 87.750 L 177.011 0 88.505 0 L 0 0 0 88.005 M 0.479 88.500 C 0.478 136.900, 0.600 156.846, 0.750 132.825 C 0.899 108.804, 0.899 69.204, 0.750 44.825 C 0.601 20.446, 0.479 40.100, 0.479 88.500 M 111.571 16.572 C 110.236 17.548, 109.291 17.657, 108.422 16.935 C 107.526 16.191, 106.773 16.486, 105.716 17.994 C 104.911 19.144, 103.858 19.965, 103.376 19.820 C 101.921 19.380, 97 23.127, 97 24.674 C 97 25.468, 96.571 25.853, 96.047 25.529 C 95.524 25.206, 94.511 26.019, 93.797 27.337 C 93.084 28.656, 91.150 31.405, 89.500 33.448 C 87.850 35.490, 85.585 38.294, 84.468 39.678 C 82.414 42.222, 75.552 43.702, 74.407 41.849 C 74.118 41.382, 73.008 41, 71.940 41 C 70.299 41, 68.414 39.356, 61.260 31.685 C 58.593 28.825, 49.499 22.191, 48.820 22.611 C 48.369 22.890, 48 22.641, 48 22.059 C 48 21.477, 47.663 21.096, 47.250 21.212 C 46.838 21.329, 45.600 20.930, 44.500 20.326 C 42.751 19.365, 41.029 19.088, 35.750 18.918 C 29.592 18.721, 19.412 24.285, 14.887 30.323 C 10.756 35.834, 9.034 40.425, 7.503 50 C 7.283 51.375, 6.812 54.075, 6.457 56 C 5.478 61.298, 4.903 66.929, 4.749 72.750 C 4.672 75.638, 4.360 78, 4.055 78 C 3.248 78, 3.536 91.730, 4.453 97 C 4.884 99.475, 5.823 102.625, 6.539 104 C 7.821 106.458, 12 110.566, 12 109.368 C 12 109.031, 12.563 109.189, 13.250 109.719 C 13.938 110.249, 15.400 110.371, 16.500 109.990 C 17.600 109.609, 19.481 108.961, 20.681 108.550 C 21.880 108.139, 23.113 107.149, 23.419 106.350 C 23.777 105.419, 23.532 105.121, 22.739 105.522 C 22.057 105.867, 22.374 105.440, 23.441 104.574 C 24.509 103.708, 24.959 102.986, 24.441 102.968 C 23.924 102.951, 24.215 102.388, 25.089 101.718 C 25.963 101.048, 26.945 99.375, 27.270 98 C 27.595 96.625, 28.381 93.700, 29.016 91.500 C 29.652 89.300, 30.230 86.037, 30.300 84.250 C 30.371 82.463, 30.782 81, 31.214 81 C 31.646 81, 31.921 80.662, 31.823 80.250 C 31.726 79.837, 32.224 77.475, 32.929 75 C 33.635 72.525, 34.186 70.275, 34.155 70 C 34.123 69.725, 34.761 68.487, 35.572 67.250 C 36.383 66.013, 36.742 65, 36.370 65 C 35.998 65, 36.655 64.167, 37.829 63.148 C 39.003 62.130, 39.634 60.962, 39.232 60.553 C 38.829 60.144, 39.175 59.930, 40 60.078 C 40.825 60.225, 42.735 59.747, 44.245 59.015 C 46.698 57.825, 47.178 57.897, 48.745 59.685 C 49.710 60.786, 51.010 61.512, 51.634 61.299 C 52.258 61.085, 53.558 61.701, 54.524 62.667 C 56.161 64.304, 57.747 64.960, 60.706 65.225 C 61.369 65.285, 61.680 65.708, 61.397 66.167 C 61.114 66.625, 61.584 67, 62.441 67 C 63.298 67, 64 67.388, 64 67.861 C 64 68.335, 65.125 68.508, 66.500 68.245 C 67.875 67.982, 69 68.157, 69 68.633 C 69 69.110, 71.138 69.607, 73.750 69.737 C 76.363 69.867, 79.400 70.170, 80.500 70.410 C 81.600 70.650, 82.838 70.881, 83.250 70.923 C 83.662 70.966, 84 71.575, 84 72.278 C 84 72.981, 84.900 74.326, 86 75.268 C 87.969 76.954, 88.793 81, 87.167 81 C 86.708 81, 86.294 81.563, 86.247 82.250 C 86.065 84.883, 85.034 88.254, 84.046 89.444 C 83.480 90.126, 83.303 90.969, 83.651 91.318 C 84 91.666, 83.658 92.724, 82.893 93.668 C 81.685 95.156, 81.700 95.266, 83 94.500 C 84.209 93.787, 84.276 93.896, 83.345 95.058 C 82.710 95.851, 82.059 98.075, 81.897 100 C 81.736 101.925, 81.131 104.149, 80.552 104.942 C 79.767 106.018, 79.815 106.195, 80.743 105.637 C 81.690 105.068, 81.861 106.032, 81.462 109.696 C 81.174 112.338, 80.771 116.075, 80.566 118 C 79.793 125.282, 78.750 130.539, 77.860 131.640 C 77.353 132.267, 76.683 136.317, 76.372 140.640 C 76.061 144.963, 75.617 148.806, 75.387 149.181 C 75.156 149.555, 75.405 150.132, 75.940 150.463 C 76.475 150.794, 76.657 151.730, 76.345 152.543 C 75.951 153.571, 76.247 153.842, 77.316 153.432 C 78.482 152.985, 78.722 153.345, 78.310 154.921 C 77.929 156.381, 78.239 157, 79.352 157 C 80.434 157, 80.738 157.555, 80.309 158.750 C 79.964 159.713, 80.037 160.178, 80.472 159.785 C 80.907 159.392, 82.204 159.730, 83.354 160.535 C 84.504 161.341, 86.357 161.978, 87.473 161.952 C 90.438 161.882, 96.541 158.569, 96.250 157.187 C 96.113 156.534, 96.482 156, 97.071 156 C 97.661 156, 98.755 155.388, 99.503 154.640 C 101.379 152.763, 104.820 140.416, 105.393 133.500 C 105.485 132.400, 105.904 130.947, 106.326 130.271 C 106.748 129.595, 106.625 128.168, 106.054 127.101 C 105.354 125.792, 105.347 125.051, 106.034 124.822 C 106.594 124.635, 107.234 121.632, 107.456 118.148 C 107.702 114.284, 108.473 111.135, 109.432 110.075 C 110.297 109.120, 110.703 108.037, 110.336 107.669 C 109.968 107.301, 110.192 107, 110.833 107 C 111.475 107, 112 106.100, 112 105 C 112 103.900, 112.338 102.999, 112.750 102.998 C 113.162 102.997, 115.975 100.763, 119 98.032 C 122.025 95.302, 125.063 92.996, 125.750 92.909 C 126.438 92.822, 127.466 92.694, 128.036 92.625 C 128.607 92.556, 129.394 91.998, 129.786 91.385 C 130.179 90.771, 131.519 89.952, 132.765 89.563 C 134.143 89.133, 134.753 88.395, 134.323 87.678 C 133.848 86.886, 134.127 86.914, 135.175 87.762 C 136.441 88.787, 136.956 88.758, 137.913 87.605 C 138.560 86.825, 140.207 86.309, 141.571 86.458 C 142.935 86.608, 144.377 86.199, 144.776 85.550 C 145.174 84.900, 148.258 83.352, 151.628 82.108 C 158.392 79.613, 165.030 73.975, 167.339 68.765 C 170.588 61.434, 170.544 61.729, 169.601 53.500 C 169.349 51.300, 168.932 48.825, 168.674 48 C 167.049 42.796, 166.678 42, 165.883 42 C 165.398 42, 165 41.298, 165 40.441 C 165 39.517, 164.530 39.173, 163.845 39.595 C 163.127 40.039, 162.963 39.870, 163.409 39.147 C 163.804 38.508, 163.424 37.281, 162.564 36.421 C 161.704 35.561, 160.986 35.227, 160.968 35.679 C 160.951 36.130, 160.388 35.825, 159.718 35 C 157.690 32.502, 151.229 28, 149.674 28 C 148.871 28, 147.971 27.367, 147.675 26.594 C 147.378 25.821, 145.755 24.885, 144.068 24.515 C 142.380 24.144, 141 23.400, 141 22.862 C 141 22.323, 140.563 22.152, 140.028 22.483 C 139.494 22.813, 137.995 22.388, 136.698 21.538 C 135.401 20.688, 134.039 20.295, 133.670 20.663 C 133.302 21.032, 133 20.808, 133 20.167 C 133 19.525, 132.100 19, 131 19 C 129.900 19, 129 18.543, 129 17.984 C 129 17.425, 127.763 16.991, 126.250 17.020 C 122.522 17.089, 115.240 16.266, 114.268 15.666 C 113.833 15.397, 112.620 15.805, 111.571 16.572 M 129.079 46.809 C 129.036 47.529, 128.550 47.840, 128 47.500 C 127.450 47.160, 127 47.407, 127 48.048 C 127 48.689, 126.325 48.955, 125.500 48.638 C 124.675 48.322, 124 48.525, 124 49.090 C 124 49.656, 123.570 49.852, 123.044 49.527 C 120.306 47.835, 116.682 60.707, 119.081 63.598 C 119.729 64.379, 121.993 65.295, 124.112 65.634 C 126.230 65.973, 127.746 66.602, 127.480 67.032 C 127.215 67.462, 127.898 67.578, 128.999 67.290 C 130.099 67.002, 131 66.321, 131 65.776 C 131 65.232, 131.774 65.083, 132.720 65.446 C 133.665 65.809, 134.122 65.789, 133.735 65.402 C 133.348 65.015, 133.615 64.203, 134.328 63.599 C 135.041 62.994, 136.149 61.263, 136.791 59.750 C 137.804 57.362, 137.730 56.998, 136.229 56.985 C 134.747 56.972, 134.714 56.831, 136 56 C 136.904 55.416, 137.026 55.025, 136.307 55.015 C 135.646 55.007, 135.291 54.087, 135.509 52.952 C 135.932 50.756, 132.519 46.561, 131.049 47.470 C 130.566 47.768, 129.943 47.447, 129.664 46.756 C 129.272 45.783, 129.140 45.794, 129.079 46.809" stroke="none" fill="#6d7dce" fill-rule="evenodd"/></svg>